<svg xmlns="http://www.w3.org/2000/svg" xmlns:xlink="http://www.w3.org/1999/xlink" width="428.152" height="115.042" viewBox="0 0 428.152 115.042">
  <defs>
    <clipPath id="clip-path">
      <path id="Icon_ionic-logo-whatsapp" data-name="Icon ionic-logo-whatsapp" d="M60.815,2.25A56.258,56.258,0,0,0,4.339,58.29a55.461,55.461,0,0,0,8.1,28.938L2.25,117.292l31.269-9.933a56.572,56.572,0,0,0,83.774-49.07A56.258,56.258,0,0,0,60.815,2.25Z" transform="translate(-2.25 -2.25)" fill="#2cd46a"/>
    </clipPath>
  </defs>
  <g id="Grupo_31" data-name="Grupo 31" transform="translate(-165 383.043)">
    <g id="Grupo_7" data-name="Grupo 7" transform="translate(165 -383.043)">
      <path id="Icon_ionic-logo-whatsapp-4" data-name="Icon ionic-logo-whatsapp" d="M60.815,2.25A56.258,56.258,0,0,0,4.339,58.29a55.461,55.461,0,0,0,8.1,28.938L2.25,117.292l31.269-9.933a56.572,56.572,0,0,0,83.774-49.07A56.258,56.258,0,0,0,60.815,2.25Z" transform="translate(-2.25 -2.25)" fill="#2cd46a"/>
      <g id="Enmascarar_grupo_9" data-name="Enmascarar grupo 9" transform="translate(0 0)" clip-path="url(#clip-path)">
        <path id="Trazado_7" data-name="Trazado 7" d="M2.4,264.177l107.208-88.935L63.791,121.389l-89.527,40.163Z" transform="translate(27.481 -148.058)" fill="#10bc4f"/>
      </g>
      <g id="Enmascarar_grupo_10" data-name="Enmascarar grupo 10" transform="translate(0 0)" clip-path="url(#clip-path)">
        <path id="Trazado_8" data-name="Trazado 8" d="M-33.664,278.112l86.519-8.327,57.87-50.693L115.841,140Z" transform="translate(28.689 -126.275)" fill="#08983e"/>
      </g>
      <g id="Enmascarar_grupo_11" data-name="Enmascarar grupo 11" transform="translate(0 0)" clip-path="url(#clip-path)">
        <path id="Trazado_9" data-name="Trazado 9" d="M-30.55,224.086c2.838,0,62.73,53.817,62.73,53.817l61.131-55.348L6.682,136.843Z" transform="translate(-20.299 -142.771)" fill="#2cd46a"/>
      </g>
      <path id="Trazado_112" data-name="Trazado 112" d="M453.018,1660.825a13.48,13.48,0,0,1-5.037-11.291,14.446,14.446,0,0,1,4.987-11.6q4.98-4.247,14.959-4.248h15.953v-2.205a12.252,12.252,0,0,0-1.1-5.719,6.6,6.6,0,0,0-4.044-2.989,28.774,28.774,0,0,0-8.4-.944,50.554,50.554,0,0,0-16.477,2.62v-8.5a45.646,45.646,0,0,1,8.4-2.2,59.6,59.6,0,0,1,10.184-.843q11.12,0,16.74,4.513t5.615,14.275v32.016h-9.752l-.736-5.042a20.09,20.09,0,0,1-7.663,4.568,34.792,34.792,0,0,1-11.018,1.523,19.869,19.869,0,0,1-12.612-3.935Zm24.465-5.932a16.861,16.861,0,0,0,6.4-4.725v-8.725h-15.74a11.3,11.3,0,0,0-7.293,1.9,7.357,7.357,0,0,0-2.256,5.988,6.2,6.2,0,0,0,2.52,5.509,13.378,13.378,0,0,0,7.557,1.73,22.016,22.016,0,0,0,8.806-1.673Z" transform="translate(-414.673 -1581.745)" fill="#fff"/>
    </g>
    <g id="Grupo_30" data-name="Grupo 30">
      <path id="Trazado_137" data-name="Trazado 137" d="M1.118,0,21.844-62.78h22.79L66.134,0H51.514L34.142-53.062l4.472,1.806H27.52l4.644-1.806L15.222,0ZM16.856-15.566l4.3-11.7h24.6l4.386,11.7ZM70.09,0V-47.128H81.012v20.3h-.774a34.591,34.591,0,0,1,1.806-12.04,14.687,14.687,0,0,1,5.418-7.267A15.409,15.409,0,0,1,96.32-48.59h.6a15.361,15.361,0,0,1,8.9,2.451,15.028,15.028,0,0,1,5.418,7.267,33.856,33.856,0,0,1,1.849,12.04h-3.354a33.856,33.856,0,0,1,1.849-12.04,14.923,14.923,0,0,1,5.461-7.267A15.409,15.409,0,0,1,125.9-48.59h.6a15.773,15.773,0,0,1,8.987,2.451,15.06,15.06,0,0,1,5.547,7.267,33.156,33.156,0,0,1,1.892,12.04V0h-13.76V-27.606a9.437,9.437,0,0,0-2.021-6.278,7.052,7.052,0,0,0-5.719-2.408,7.38,7.38,0,0,0-5.848,2.451,9.491,9.491,0,0,0-2.15,6.493V0H99.588V-27.606a9.437,9.437,0,0,0-2.021-6.278,6.953,6.953,0,0,0-5.633-2.408A7.482,7.482,0,0,0,86-33.841a9.491,9.491,0,0,0-2.15,6.493V0ZM179.654,0V-13.932h-2.322V-29.068a7.588,7.588,0,0,0-1.72-5.418q-1.72-1.806-5.5-1.806-1.892,0-4.988.086t-6.364.258q-3.268.172-5.934.344v-11.61q1.978-.172,4.644-.344t5.5-.258q2.838-.086,5.332-.086a31.646,31.646,0,0,1,12.169,2.064A15.632,15.632,0,0,1,188-39.6a20.075,20.075,0,0,1,2.58,10.707V0ZM164.6,1.2A20.647,20.647,0,0,1,155.7-.6a13.93,13.93,0,0,1-5.977-5.2,14.88,14.88,0,0,1-2.15-8.127,13.08,13.08,0,0,1,2.666-8.471,15.58,15.58,0,0,1,7.482-4.9A35.355,35.355,0,0,1,168.818-28.9H178.88v7.654H168.732a7.954,7.954,0,0,0-5.547,1.763,6.138,6.138,0,0,0-1.935,4.773,5.933,5.933,0,0,0,1.935,4.6,7.954,7.954,0,0,0,5.547,1.763,10.217,10.217,0,0,0,4.171-.817,6.784,6.784,0,0,0,3.053-2.795,11.725,11.725,0,0,0,1.376-5.5l3.268,3.44a19.847,19.847,0,0,1-2.365,8.256A13.2,13.2,0,0,1,172.9-.6,17.493,17.493,0,0,1,164.6,1.2Zm32.938,17.458V6.966h9.8a11.208,11.208,0,0,0,3.784-.559,5.214,5.214,0,0,0,2.494-1.849,10.658,10.658,0,0,0,1.548-3.526l11.61-48.16h13.072L226.7,3.784a24.432,24.432,0,0,1-3.827,8.772,13.479,13.479,0,0,1-6.536,4.687,32.043,32.043,0,0,1-10.363,1.419ZM212.334-1.032v-10.75h9.976v10.75Zm-5.676,0-14.448-46.1h13.846l13.674,46.1ZM271.416,0V-13.932h-2.322V-29.068a7.588,7.588,0,0,0-1.72-5.418q-1.72-1.806-5.5-1.806-1.892,0-4.988.086t-6.364.258q-3.268.172-5.934.344v-11.61q1.978-.172,4.644-.344t5.5-.258q2.838-.086,5.332-.086a31.646,31.646,0,0,1,12.169,2.064,15.632,15.632,0,0,1,7.525,6.235,20.075,20.075,0,0,1,2.58,10.707V0Zm-15.05,1.2a20.647,20.647,0,0,1-8.9-1.806,13.93,13.93,0,0,1-5.977-5.2,14.88,14.88,0,0,1-2.15-8.127A13.08,13.08,0,0,1,242-22.4a15.58,15.58,0,0,1,7.482-4.9A35.355,35.355,0,0,1,260.58-28.9h10.062v7.654H260.494a7.954,7.954,0,0,0-5.547,1.763,6.138,6.138,0,0,0-1.935,4.773,5.933,5.933,0,0,0,1.935,4.6,7.954,7.954,0,0,0,5.547,1.763,10.217,10.217,0,0,0,4.171-.817,6.784,6.784,0,0,0,3.053-2.795,11.724,11.724,0,0,0,1.376-5.5l3.268,3.44A19.847,19.847,0,0,1,270-5.762,13.2,13.2,0,0,1,264.665-.6,17.493,17.493,0,0,1,256.366,1.2Z" transform="translate(297 -300)"/>
      <path id="Trazado_138" data-name="Trazado 138" d="M15.072-11.488,10.24-15.072v-3.84L15.072-22.5l2.08,3.712-3.808,1.5v.576l3.808,1.5ZM10.624-25.12l-.672,5.984-3.328,1.92-5.5-2.4,2.144-3.648L6.5-20.736l.48-.288-.608-4.032ZM1.12-14.368l5.5-2.4,3.328,1.92.672,5.984L6.4-8.928l.576-4.032-.48-.288L3.3-10.72Z" transform="translate(576 -338)" fill="#8e8e8e"/>
    </g>
  </g>
</svg>
