<svg xmlns="http://www.w3.org/2000/svg" xmlns:xlink="http://www.w3.org/1999/xlink" width="435.05" height="115.043" viewBox="0 0 435.05 115.043">
  <defs>
    <linearGradient id="linear-gradient" x1="0.839" y1="0.014" x2="0.111" y2="0.973" gradientUnits="objectBoundingBox">
      <stop offset="0" stop-color="#019aff"/>
      <stop offset="1" stop-color="#080088"/>
    </linearGradient>
    <linearGradient id="linear-gradient-2" x1="0.91" y1="1" x2="0.203" y2="0.167" gradientUnits="objectBoundingBox">
      <stop offset="0" stop-color="#0292fa"/>
      <stop offset="1" stop-color="#0e0077"/>
    </linearGradient>
    <linearGradient id="linear-gradient-3" x1="0.865" y1="-0.124" x2="0.124" y2="0.537" gradientUnits="objectBoundingBox">
      <stop offset="0" stop-color="#0292fa"/>
      <stop offset="1" stop-color="#32076f"/>
    </linearGradient>
  </defs>
  <g id="Grupo_32" data-name="Grupo 32" transform="translate(-792.659 369.375)">
    <g id="Grupo_27" data-name="Grupo 27" transform="translate(792.659 -369.375)">
      <path id="Trazado_4" data-name="Trazado 4" d="M84.892,20.312,63.419,57.37l-28.274,48.8a18.066,18.066,0,0,1-24.664,6.586,19.942,19.942,0,0,1-7.338-27.2L50.488,2.888A4.741,4.741,0,0,1,54.61.5l16.5.026a3.916,3.916,0,0,1,3.366,1.931L76.32,5.589l5.111,8.689Z" transform="translate(-0.317 -0.317)" fill="#fff"/>
      <path id="Trazado_5" data-name="Trazado 5" d="M84.892,20.312,63.419,57.37l-28.274,48.8a18.066,18.066,0,0,1-24.664,6.586,19.942,19.942,0,0,1-7.338-27.2L50.488,2.888A4.741,4.741,0,0,1,54.61.5l16.5.026a3.916,3.916,0,0,1,3.366,1.931L76.32,5.589l5.111,8.689Z" transform="translate(-0.317 -0.317)" fill="url(#linear-gradient)"/>
      <path id="Trazado_6" data-name="Trazado 6" d="M213.3,23.129,208.19,14.44a8.116,8.116,0,0,1,.73,1.059Z" transform="translate(-132.187 -9.168)" fill="#fff"/>
      <path id="Trazado_8" data-name="Trazado 8" d="M229.968,116.875a3.766,3.766,0,0,0-2.45-.887H186.8L172.85,91.828,194.323,54.77Z" transform="translate(-109.749 -34.775)" fill="#fff"/>
      <path id="Trazado_9" data-name="Trazado 9" d="M229.968,116.875a3.766,3.766,0,0,0-2.45-.887H186.8L172.85,91.828,194.323,54.77Z" transform="translate(-109.749 -34.775)" fill="url(#linear-gradient-2)"/>
      <path id="Trazado_10" data-name="Trazado 10" d="M230.243,228.06l-13.471,23.7a3.808,3.808,0,0,1-3.359,2.019H189.666a3.808,3.808,0,0,1-3.256-1.836l-14.008-23.7a3.81,3.81,0,0,1,3.256-5.783h51.222a3.767,3.767,0,0,1,2.45.887,3.807,3.807,0,0,1,.913,4.713" transform="translate(-109.111 -141.248)" fill="#fff"/>
      <path id="Trazado_11" data-name="Trazado 11" d="M230.243,228.533l-13.471,25.7a3.778,3.778,0,0,1-3.359,2.189H189.666a3.756,3.756,0,0,1-3.256-1.991l-14.008-25.7c-1.537-2.751.292-6.271,3.256-6.271h51.222a3.6,3.6,0,0,1,2.45.962A4.369,4.369,0,0,1,230.243,228.533Z" transform="translate(-109.111 -141.377)" fill="url(#linear-gradient-3)"/>
      <path id="Trazado_12" data-name="Trazado 12" d="M0,0H121.767V115.042H0Z" transform="translate(0 0)" fill="none"/>
    </g>
    <path id="Trazado_136" data-name="Trazado 136" d="M1.365-35.492,14.953-76.65H29.893l14.1,41.158H34.4L23.015-70.279,25.947-69.1H18.674l3.045-1.184L10.611-35.492ZM11.683-45.7,14.5-53.365H30.626L33.5-45.7Zm37.155,10.2v-30.9H56v13.306H55.49a22.677,22.677,0,0,1,1.184-7.893,9.629,9.629,0,0,1,3.552-4.764,10.1,10.1,0,0,1,5.807-1.607h.395a10.07,10.07,0,0,1,5.835,1.607,9.852,9.852,0,0,1,3.552,4.764,22.2,22.2,0,0,1,1.212,7.893h-2.2a22.2,22.2,0,0,1,1.212-7.893,9.783,9.783,0,0,1,3.58-4.764,10.1,10.1,0,0,1,5.807-1.607h.395a10.341,10.341,0,0,1,5.892,1.607,9.874,9.874,0,0,1,3.637,4.764,21.737,21.737,0,0,1,1.24,7.893v17.591H87.571v-18.1a6.187,6.187,0,0,0-1.325-4.116A4.623,4.623,0,0,0,82.5-59.285a4.838,4.838,0,0,0-3.834,1.607,6.222,6.222,0,0,0-1.41,4.257v17.929H68.176v-18.1a6.187,6.187,0,0,0-1.325-4.116,4.558,4.558,0,0,0-3.693-1.579,4.9,4.9,0,0,0-3.89,1.607,6.222,6.222,0,0,0-1.41,4.257v17.929Zm74.084,0v-9.134H121.4v-9.923a4.975,4.975,0,0,0-1.128-3.552,4.793,4.793,0,0,0-3.608-1.184q-1.24,0-3.27.056t-4.172.169q-2.142.113-3.89.226v-7.611q1.3-.113,3.045-.226t3.608-.169q1.861-.056,3.5-.056a20.747,20.747,0,0,1,7.978,1.353,10.248,10.248,0,0,1,4.933,4.088,13.161,13.161,0,0,1,1.691,7.019v18.944Zm-9.867.789a13.536,13.536,0,0,1-5.835-1.184A9.132,9.132,0,0,1,103.3-39.3a9.755,9.755,0,0,1-1.41-5.328,8.575,8.575,0,0,1,1.748-5.553,10.214,10.214,0,0,1,4.905-3.214,23.178,23.178,0,0,1,7.273-1.043h6.6v5.018h-6.653a5.215,5.215,0,0,0-3.637,1.156,4.024,4.024,0,0,0-1.269,3.129,3.89,3.89,0,0,0,1.269,3.016,5.215,5.215,0,0,0,3.637,1.156A6.7,6.7,0,0,0,118.5-41.5a4.447,4.447,0,0,0,2-1.832,7.686,7.686,0,0,0,.9-3.608l2.142,2.255a13.012,13.012,0,0,1-1.55,5.412,8.651,8.651,0,0,1-3.5,3.383A11.468,11.468,0,0,1,113.055-34.7ZM136.9-23.258v-7.668h6.427a7.348,7.348,0,0,0,2.481-.366,3.418,3.418,0,0,0,1.635-1.212,6.986,6.986,0,0,0,1.015-2.312l7.611-31.573h8.57l-8.626,33.377a16.016,16.016,0,0,1-2.509,5.751,8.837,8.837,0,0,1-4.285,3.073,21.007,21.007,0,0,1-6.794.93Zm9.7-12.911v-7.048h6.54v7.048Zm-3.721,0-9.472-30.22h9.077l8.964,30.22Zm44.71.677v-9.134h-1.522v-9.923A4.975,4.975,0,0,0,184.94-58.1a4.793,4.793,0,0,0-3.608-1.184q-1.24,0-3.27.056t-4.172.169q-2.142.113-3.89.226v-7.611q1.3-.113,3.045-.226t3.608-.169q1.861-.056,3.5-.056a20.747,20.747,0,0,1,7.978,1.353,10.248,10.248,0,0,1,4.933,4.088,13.161,13.161,0,0,1,1.691,7.019v18.944Zm-9.867.789a13.536,13.536,0,0,1-5.835-1.184,9.132,9.132,0,0,1-3.918-3.411,9.755,9.755,0,0,1-1.41-5.328,8.575,8.575,0,0,1,1.748-5.553,10.214,10.214,0,0,1,4.905-3.214,23.178,23.178,0,0,1,7.273-1.043h6.6v5.018h-6.653a5.215,5.215,0,0,0-3.637,1.156,4.024,4.024,0,0,0-1.269,3.129,3.89,3.89,0,0,0,1.269,3.016,5.215,5.215,0,0,0,3.637,1.156,6.7,6.7,0,0,0,2.734-.536,4.447,4.447,0,0,0,2-1.832,7.686,7.686,0,0,0,.9-3.608l2.142,2.255a13.011,13.011,0,0,1-1.55,5.412,8.65,8.65,0,0,1-3.5,3.383A11.468,11.468,0,0,1,177.723-34.7Z" transform="translate(936.82 -278.752)"/>
    <path id="Trazado_135" data-name="Trazado 135" d="M9.612-22.434v-3.141h6.352a10.565,10.565,0,0,0,4.1-.75A9.017,9.017,0,0,0,23.137-28.4a8.93,8.93,0,0,0,1.937-3.106,10.91,10.91,0,0,0,.663-3.839,11.077,11.077,0,0,0-.663-3.926,8.785,8.785,0,0,0-1.937-3.071,8.536,8.536,0,0,0-3.071-2.007,11.266,11.266,0,0,0-4.1-.7H9.612v-3.141h6a15.5,15.5,0,0,1,6,1.065,12.177,12.177,0,0,1,4.241,2.862,12.007,12.007,0,0,1,2.53,4.014,12.689,12.689,0,0,1,.838,4.52v.768A12.646,12.646,0,0,1,28.39-30.5a12.151,12.151,0,0,1-2.53,4.049,12.45,12.45,0,0,1-4.241,2.914,15.068,15.068,0,0,1-6,1.1Zm-2.722,0V-48.192h3.42v25.758Zm26.63-.14V-41.211h3.351v18.638ZM30.658-38.559v-2.653h6.213v2.653Zm3.8-5.654a2.136,2.136,0,0,1-1.658-.593,2.142,2.142,0,0,1-.541-1.5,2.142,2.142,0,0,1,.541-1.5,2.136,2.136,0,0,1,1.658-.593,2.136,2.136,0,0,1,1.658.593,2.142,2.142,0,0,1,.541,1.5,2.142,2.142,0,0,1-.541,1.5A2.136,2.136,0,0,1,34.463-44.213Zm14.554,28.9q-1.291,0-2.6-.1t-2.5-.279v-2.827q1.256.174,2.635.3t2.6.122a10.089,10.089,0,0,0,4.066-.681,4.271,4.271,0,0,0,2.2-2.129,8.769,8.769,0,0,0,.681-3.717v-3.56l1.117-2.653a10.011,10.011,0,0,1-1.187,4.694,7.118,7.118,0,0,1-2.81,2.792,7.968,7.968,0,0,1-3.822.925,8.421,8.421,0,0,1-3.577-.75,8.353,8.353,0,0,1-2.792-2.077,9.713,9.713,0,0,1-1.815-3.054,10.332,10.332,0,0,1-.646-3.647v-.628a9.91,9.91,0,0,1,.663-3.647,9.056,9.056,0,0,1,1.85-2.949,8.282,8.282,0,0,1,2.845-1.955,9.306,9.306,0,0,1,3.647-.7,8.3,8.3,0,0,1,4.118.995,7.1,7.1,0,0,1,2.81,2.9,10.541,10.541,0,0,1,1.134,4.659l-.977.035v-7.958h2.653v16.439a12.262,12.262,0,0,1-1.03,5.427A6.339,6.339,0,0,1,55-16.291,15.259,15.259,0,0,1,49.017-15.314Zm1.012-10.191a6.4,6.4,0,0,0,3.054-.733,5.557,5.557,0,0,0,2.2-2.112,6.336,6.336,0,0,0,.82-3.3v-1.605a5.628,5.628,0,0,0-.855-3.176,5.518,5.518,0,0,0-2.216-1.955,6.682,6.682,0,0,0-2.967-.663,6.119,6.119,0,0,0-3.211.838,5.657,5.657,0,0,0-2.164,2.356,7.834,7.834,0,0,0-.768,3.577,7.8,7.8,0,0,0,.785,3.595,5.668,5.668,0,0,0,2.164,2.356A6.059,6.059,0,0,0,50.029-25.505Zm15.008,2.932V-41.211h3.351v18.638ZM62.175-38.559v-2.653h6.213v2.653Zm3.8-5.654a2.136,2.136,0,0,1-1.658-.593,2.142,2.142,0,0,1-.541-1.5,2.142,2.142,0,0,1,.541-1.5,2.136,2.136,0,0,1,1.658-.593,2.136,2.136,0,0,1,1.658.593,2.142,2.142,0,0,1,.541,1.5,2.142,2.142,0,0,1-.541,1.5A2.136,2.136,0,0,1,65.979-44.213ZM80.743-22.364a9.915,9.915,0,0,1-3.612-.593A4.505,4.505,0,0,1,74.792-25a7.981,7.981,0,0,1-.82-3.926v-17.94h3.211v18.359A3.139,3.139,0,0,0,78-26.186a3.139,3.139,0,0,0,2.321.82H83.6v3ZM70.761-38.7v-2.513H83.6V-38.7Zm27.4,16.125v-5.584H97.6v-6.457a3.888,3.888,0,0,0-.995-2.9,3.993,3.993,0,0,0-2.914-.977q-1.082,0-2.234.035t-2.2.07q-1.047.035-1.815.1v-2.932q.768-.07,1.623-.122t1.763-.07q.907-.017,1.745-.017a13.521,13.521,0,0,1,4.677.681,4.972,4.972,0,0,1,2.687,2.216,8.415,8.415,0,0,1,.873,4.153v11.8Zm-6.108.489a8.407,8.407,0,0,1-3.612-.715A5.285,5.285,0,0,1,86.1-24.877a6.242,6.242,0,0,1-.82-3.281,5.822,5.822,0,0,1,.89-3.316,5.448,5.448,0,0,1,2.6-2.007,11.141,11.141,0,0,1,4.118-.681H97.95v2.513h-5.2a4.48,4.48,0,0,0-3.106.977,3.233,3.233,0,0,0-1.082,2.513,3.127,3.127,0,0,0,1.082,2.478,4.59,4.59,0,0,0,3.106.942,6.01,6.01,0,0,0,2.269-.436,3.975,3.975,0,0,0,1.8-1.466,5.291,5.291,0,0,0,.785-2.845l.907,1.326a7.92,7.92,0,0,1-.96,3.333,5.157,5.157,0,0,1-2.164,2.042A7.31,7.31,0,0,1,92.051-22.085Zm13.717-.489V-48.052h3.351v25.479ZM103.185-45.4v-2.653h5.933V-45.4Zm26.281,23.454a12.675,12.675,0,0,1-5.41-1.047,7.946,7.946,0,0,1-3.42-2.9,7.589,7.589,0,0,1-1.187-4.188h3.42a4.879,4.879,0,0,0,.611,2.3,4.74,4.74,0,0,0,2.059,1.92,8.438,8.438,0,0,0,3.927.768,8.99,8.99,0,0,0,3.769-.681,4.924,4.924,0,0,0,2.164-1.78,4.375,4.375,0,0,0,.7-2.391,3.137,3.137,0,0,0-1.361-2.6,7.76,7.76,0,0,0-3.979-1.274l-2.827-.244a8.956,8.956,0,0,1-5.41-2.094,6.113,6.113,0,0,1-2.024-4.782,7.324,7.324,0,0,1,1.134-4.084,7.741,7.741,0,0,1,3.159-2.74,10.561,10.561,0,0,1,4.712-.995,10.635,10.635,0,0,1,4.677.977,7.576,7.576,0,0,1,3.159,2.74,7.6,7.6,0,0,1,1.134,4.206h-3.42a4.831,4.831,0,0,0-.576-2.3,4.485,4.485,0,0,0-1.8-1.78,6.36,6.36,0,0,0-3.176-.7,6.574,6.574,0,0,0-3.124.663,4.52,4.52,0,0,0-1.85,1.728,4.518,4.518,0,0,0-.611,2.286A3.409,3.409,0,0,0,125-38.454,4.96,4.96,0,0,0,128.21-37.2l2.827.244a13.089,13.089,0,0,1,4.52,1.1,7.158,7.158,0,0,1,2.932,2.373,6.057,6.057,0,0,1,1.03,3.543,7.119,7.119,0,0,1-1.256,4.153,8.256,8.256,0,0,1-3.525,2.827A12.829,12.829,0,0,1,129.466-21.945Zm13.891-.628V-41.211h2.653v7.993h-.419a13.184,13.184,0,0,1,.715-4.625,6.063,6.063,0,0,1,2.146-2.914,6.137,6.137,0,0,1,3.63-1.012h.14a6.218,6.218,0,0,1,3.647,1.012,5.92,5.92,0,0,1,2.146,2.914,13.485,13.485,0,0,1,.7,4.625h-.977a12.9,12.9,0,0,1,.733-4.625,6.12,6.12,0,0,1,2.181-2.914A6.218,6.218,0,0,1,164.3-41.77h.14a6.3,6.3,0,0,1,3.665,1.012,5.977,5.977,0,0,1,2.181,2.914A13.184,13.184,0,0,1,171-33.219v10.645h-3.351V-33.951a5.059,5.059,0,0,0-1.117-3.508,3.968,3.968,0,0,0-3.106-1.239,4.385,4.385,0,0,0-3.316,1.309,5.051,5.051,0,0,0-1.256,3.647v11.169H155.5V-33.951a5.059,5.059,0,0,0-1.117-3.508A3.968,3.968,0,0,0,151.28-38.7a4.385,4.385,0,0,0-3.316,1.309,5.051,5.051,0,0,0-1.256,3.647v11.169Zm43.663,0v-5.584h-.558v-6.457a3.888,3.888,0,0,0-.995-2.9,3.993,3.993,0,0,0-2.914-.977q-1.082,0-2.234.035t-2.2.07q-1.047.035-1.815.1v-2.932q.768-.07,1.623-.122t1.763-.07q.907-.017,1.745-.017a13.521,13.521,0,0,1,4.677.681,4.972,4.972,0,0,1,2.687,2.216,8.414,8.414,0,0,1,.873,4.153v11.8Zm-6.108.489A8.407,8.407,0,0,1,177.3-22.8a5.285,5.285,0,0,1-2.338-2.077,6.242,6.242,0,0,1-.82-3.281,5.822,5.822,0,0,1,.89-3.316,5.448,5.448,0,0,1,2.6-2.007,11.141,11.141,0,0,1,4.118-.681h5.061v2.513h-5.2a4.481,4.481,0,0,0-3.106.977,3.233,3.233,0,0,0-1.082,2.513A3.127,3.127,0,0,0,178.5-25.68a4.59,4.59,0,0,0,3.106.942,6.01,6.01,0,0,0,2.269-.436,3.975,3.975,0,0,0,1.8-1.466,5.292,5.292,0,0,0,.785-2.845l.907,1.326a7.92,7.92,0,0,1-.96,3.333,5.157,5.157,0,0,1-2.164,2.042A7.31,7.31,0,0,1,180.912-22.085Zm13.507-.489V-41.211h2.653v7.678h-.14q0-4.084,1.8-5.986a7.08,7.08,0,0,1,5.392-1.9h.628v3h-1.187a5.85,5.85,0,0,0-4.293,1.483,5.748,5.748,0,0,0-1.5,4.276v10.087Zm20.522.209a9.915,9.915,0,0,1-3.612-.593A4.506,4.506,0,0,1,208.991-25a7.981,7.981,0,0,1-.82-3.926v-17.94h3.211v18.359a3.139,3.139,0,0,0,.82,2.321,3.139,3.139,0,0,0,2.321.82H217.8v3ZM204.96-38.7v-2.513H217.8V-38.7ZM226.6-22.573l3.769-18.01h4.537l4.4,18.01h-2.862l-4.4-17.94h1.117l-3.8,17.94Zm-1.71,0v-2.653h3.874v2.653Zm-.768,0-5.27-18.638h3.211l5.131,18.638Zm13.018,0v-2.653h3.874v2.653Zm1.571,0,4.467-18.638h3.036l-4.572,18.638Zm21.779,0v-5.584h-.558v-6.457a3.888,3.888,0,0,0-.995-2.9,3.993,3.993,0,0,0-2.914-.977q-1.082,0-2.234.035t-2.2.07q-1.047.035-1.815.1v-2.932q.768-.07,1.623-.122t1.763-.07q.907-.017,1.745-.017a13.52,13.52,0,0,1,4.677.681,4.972,4.972,0,0,1,2.687,2.216,8.414,8.414,0,0,1,.873,4.153v11.8Zm-6.108.489a8.407,8.407,0,0,1-3.612-.715,5.285,5.285,0,0,1-2.338-2.077,6.242,6.242,0,0,1-.82-3.281,5.822,5.822,0,0,1,.89-3.316,5.448,5.448,0,0,1,2.6-2.007,11.14,11.14,0,0,1,4.118-.681h5.061v2.513h-5.2a4.481,4.481,0,0,0-3.106.977,3.233,3.233,0,0,0-1.082,2.513,3.127,3.127,0,0,0,1.082,2.478,4.59,4.59,0,0,0,3.106.942,6.009,6.009,0,0,0,2.269-.436,3.975,3.975,0,0,0,1.8-1.466,5.292,5.292,0,0,0,.785-2.845l.907,1.326a7.921,7.921,0,0,1-.96,3.333,5.157,5.157,0,0,1-2.164,2.042A7.31,7.31,0,0,1,254.381-22.085Zm13.507-.489V-41.211h2.653v7.678h-.14q0-4.084,1.8-5.986a7.08,7.08,0,0,1,5.392-1.9h.628v3h-1.187a5.849,5.849,0,0,0-4.293,1.483,5.748,5.748,0,0,0-1.5,4.276v10.087Zm20.627.628a9.838,9.838,0,0,1-4.223-.838A8.087,8.087,0,0,1,281.4-25a9.335,9.335,0,0,1-1.658-3.089,11.506,11.506,0,0,1-.541-3.49v-.628a11.619,11.619,0,0,1,.541-3.525A9.335,9.335,0,0,1,281.4-38.82a8.025,8.025,0,0,1,2.845-2.2,9.393,9.393,0,0,1,4.066-.82,8.88,8.88,0,0,1,5.008,1.309,8.093,8.093,0,0,1,2.932,3.368,10.282,10.282,0,0,1,.96,4.4v1.5H280.662v-2.513h14.1L294-32.416a8.6,8.6,0,0,0-.628-3.438,4.92,4.92,0,0,0-1.885-2.251,5.8,5.8,0,0,0-3.176-.8,5.656,5.656,0,0,0-3.3.907,5.463,5.463,0,0,0-1.954,2.478,9.49,9.49,0,0,0-.646,3.63,9.425,9.425,0,0,0,.646,3.577A5.436,5.436,0,0,0,285.06-25.8a6.018,6.018,0,0,0,3.455.925,6.05,6.05,0,0,0,3.577-.977,3.8,3.8,0,0,0,1.658-2.269h3.141a7.394,7.394,0,0,1-1.536,3.316,7.406,7.406,0,0,1-2.9,2.129A10.1,10.1,0,0,1,288.515-21.945Z" transform="translate(930.503 -251.399)" fill="#8e8e8e"/>
  </g>
</svg>
